<svg xmlns="http://www.w3.org/2000/svg" width="50" height="51" fill="none"><rect width="50" height="50" y=".724" fill="#E8F2EE" rx="25"/><path fill="#5BB5A2" d="M11.805 19.887A20.912 20.912 0 0 1 25 15.224c5 0 9.59 1.746 13.195 4.663l-1.465 1.815A18.588 18.588 0 0 0 25 17.557a18.583 18.583 0 0 0-11.73 4.145l-1.465-1.815Zm3.665 4.538A15.104 15.104 0 0 1 25 21.057a15.108 15.108 0 0 1 9.53 3.367l-1.466 1.815A12.78 12.78 0 0 0 25 23.39c-3.054 0-5.86 1.068-8.064 2.85l-1.466-1.816v.001Zm3.665 4.538A9.295 9.295 0 0 1 25 26.89c2.221 0 4.262.776 5.865 2.072l-1.466 1.816A6.97 6.97 0 0 0 25 29.224a6.971 6.971 0 0 0-4.398 1.554l-1.467-1.816v.002Zm3.666 4.539a3.485 3.485 0 0 1 2.2-.778c.832 0 1.598.291 2.198.777L25 36.224 22.801 33.5Z"/></svg>